# xmcd
#
# Track frame offsets:
#	150
#	11157
#	21697
#	32567
#	43813
#	59297
#	78477
#	95265
#	106389
#	125139
#	135303
#	151058
#	165351
#	183854
#	202160
#	213918
#	231125
#	244046
#	257861
#	269762
#
# Disc length: 3726 seconds
#
# Revision: 1
# Processed by: cddbd v1.5.2PL0 Copyright (c) Steve Scherf et al.
# Submitted via: audiograbber 1.83.01
#
DISCID=180e8c14
DTITLE=Jonny Hill and Freddy Quinn - Country Time
DYEAR=2010
DGENRE=Country
TTITLE0=Freddy Quinn - Kann Liebe alles verzeihn
TTITLE1=Jonny Hill - König der Landstraße (King Of The Road)
TTITLE2=Jonny Hill - Adios Amigo
TTITLE3=Freddy Quinn - Nur ein Mann in besten Jahren
TTITLE4=Jonny Hill - Lucille
TTITLE5=Jonny Hill - Kinder, alte Hunde und junger herber Wein
TTITLE6=Freddy Quinn - Heute Nacht da brauch ich dich
TTITLE7=Jonny Hill - Ich fahr meine Tour (Six Days On The Road)
TTITLE8=Jonny Hill - Sylvia's Mutter
TTITLE9=Freddy Quinn - Geh'n wir nochmal den Weg nach Westen
TTITLE10=Jonny Hill - Und wieder zeigt dir einer einen Vogel
TTITLE11=Jonny Hill - Wer wie ICH viel unterwegs war
TTITLE12=Freddy Quinn - Er war ein Kind dieser Stadt
TTITLE13=Jonny Hill - Wieder mal auf Tournee (Leaving On A Jetplane)
TTITLE14=Jonny Hill - Ja, die Tür steht immer offen (The Door Is Always Open)
TTITLE15=Freddy Quinn - Gib mir ein Zuhaus (Home Of The Range)
TTITLE16=Jonny Hill - Es sind nur Erinnerungen (I Recall A Gipsy Woman)
TTITLE17=Jonny Hill - Ich lösche das Licht aus (Dreaming My Dreams)
TTITLE18=Freddy Quinn - Ich möcht' in Tennessee leben
TTITLE19=Freddy Quinn - Oh wie schade, Clementine
EXTD=                           CONTRY \n                            
EXTD=DEUTSCH
EXTT0=
EXTT1=
EXTT2=
EXTT3=
EXTT4=
EXTT5=
EXTT6=
EXTT7=
EXTT8=
EXTT9=
EXTT10=
EXTT11=
EXTT12=
EXTT13=
EXTT14=
EXTT15=
EXTT16=
EXTT17=
EXTT18=
EXTT19=
PLAYORDER=
